<?xml version="1.0" encoding="UTF-8"?>
<svg id="Capa_1" data-name="Capa 1" xmlns="http://www.w3.org/2000/svg" viewBox="0 0 512 512">
  <defs>
    <style>
      .cls-1 {
        fill: #a99f83;
      }

      .cls-2 {
        fill: #919190;
      }

      .cls-3 {
        fill: #242224;
      }

      .cls-4 {
        fill: #6f7071;
      }

      .cls-5 {
        fill: #bbaa7f;
      }

      .cls-6 {
        fill: #a59b7f;
      }

      .cls-7 {
        fill: #939595;
      }

      .cls-8 {
        fill: #8e918f;
      }
    </style>
  </defs>
  <g id="Generative_Object" data-name="Generative Object">
    <g>
      <path class="cls-3" d="M264.5,0c2.02.2,4.01.36,5.99.49,37.77-.3,77.89,12.57,111.19,31.27,41.33,23.21,75.49,57.3,98.65,98.62,19.35,34.52,31.15,74.36,31.67,113.11v27c-1.93,63.14-30.64,124.59-75.7,168.81-44.96,44.11-107.01,71.91-168.8,72.69h-19c-2.01-.2-4.01-.36-5.99-.49-38.05.42-78.9-12.48-112.71-31.56-38.27-21.6-70.34-52.51-93.24-89.97C14.07,353.19.38,309.89,0,267.5v-19.5c.19-1.69.36-3.35.5-4.99-.57-37.99,12.21-78.6,30.95-112.19,23.08-41.4,57.61-75.86,98.96-99.04C163.63,13.16,203.92.3,241.5.52c1.88-.38,3.87-.55,6-.51h17Z"/>
      <g>
        <polygon class="cls-7" points="247.5 0 241.5 .52 241.5 0 247.5 0"/>
        <path class="cls-4" d="M270.5,0v.49s-5.03.04-5.03.04c-.54,0-.92-.21-.97-.53h6Z"/>
        <path class="cls-2" d="M248.5,512h-6v-.49s5.03-.04,5.03-.04c.54,0,.92.21.97.53Z"/>
        <path class="cls-8" d="M0,248v-5h.5s.02,4.04.02,4.04c0,.54-.2.92-.53.96Z"/>
        <g>
          <path class="cls-5" d="M135.9,389.93c62.23,55.56,154.03,61.32,222.55,13.85l20.27,29.01c-37.74,26.6-83.18,40.2-129.42,38.41-44.39-1.15-86.73-16.34-122.33-42.68-44.61-33.02-74.62-82.47-83.72-137.28-9.35-56.33,4.17-113.87,37.14-160.27,42.42-59.7,113.29-94.11,186.72-90.37,38.18,1.95,74.94,14.23,107.38,35.31l-20.32,29.32c-5.62-3.81-10.8-6.89-16.7-9.76-67.31-34.46-147.79-22.75-203.49,28.09-31.99,29.2-52.31,69.8-57.06,112.82-6.37,57.8,15.59,114.83,58.96,153.55Z"/>
          <g>
            <path class="cls-5" d="M155.72,349l73.95-106.71c4.07-5.88,7.3-11.65,9.13-18.58.63-6.08-.98-12.22-5.01-17.08-6.57-7.93-17.55-10.51-27.11-6.45-8.96,3.8-15.26,12.98-14.39,23.6l-35.4-.03c-.38-12.05,2.64-23.13,8.69-33.17,10.78-16.66,28.78-27.54,48.94-27.93,16.97-.33,33.54,7.05,44.64,19.47,19.16,21.42,19.63,52.22,3.32,75.5l-39.09,55.79,57.65.06-24.68,35.63-100.65-.1Z"/>
            <polygon class="cls-5" points="320.67 349.09 320.65 198.42 289.88 198.37 296.11 189.07 314.36 162.75 355.72 162.73 355.74 349.05 320.67 349.09"/>
          </g>
        </g>
        <path class="cls-6" d="M371.59,348.88c0-1.01.53-2.33-.37-3.51-.39.84-.09,3.08-1.37,3.54-.89.32-1.51-1.94-1.34-3.01-1.55,1.01.22,3.5-1.77,3.13l-.05-6.39c.15-.36,1.54-.42,1.66-.06l1.43,4.57,1.42-4.55c.11-.36,1.44-.34,1.66,0l.07,5.41c0,.57-.11,1.28-1.32.84Z"/>
        <path class="cls-1" d="M363.26,349.13c-.96,0-1.52-.31-2.01-.6-.4-.24-1.06-1.07-.22-1.66l1.87,1.24c.45.3.87-.12,1.13-.3,1.87-1.32-3.58-1.29-3.32-3.69.15-1.36,1.5-1.79,2.53-1.73,1.16.06,2.19.6,2.33,2.07-1.29.25-1.82-1.61-3.26-.97-.29.13-.54.64-.12,1.07.71.74,3.18.53,3.4,2.22.17,1.31-.59,2.36-2.33,2.35Z"/>
      </g>
    </g>
  </g>
</svg>